# xmcd
#
# Track frame offsets:
#	183
#	11088
#	22008
#	36298
#	50298
#	63388
#	74148
#	85023
#	98388
#	110768
#	128618
#	141558
#	148388
#	157823
#
# Disc length: 2231 seconds
#
# Revision: 1
# Processed by: cddbd v1.4PL0 Copyright (c) Steve Scherf et al.
# Submitted via: audiograbber 1.81.01
#
DISCID=c708b50e
DTITLE=Various Artist - Country and Western
DYEAR=1989
DGENRE=Country
TTITLE0=Donna Fargo - All That´s Keeping Me All That's Keeping Me Alive
TTITLE1=Waylon Jennings - They Call the Wind Maria
TTITLE2=Johny Lee - Long Black Veil
TTITLE3=Willie Nelson - So Much To Do
TTITLE4=Johny Paycheck - Talk About Me
TTITLE5=Stonewall Jackson - Waterloo
TTITLE6=Patsy Cline - Honky Tonk Merry Go Round
TTITLE7=Faron Young - There Goes My Everything
TTITLE8=Tex Ritter - High Noon
TTITLE9=Frankie Laine - You Gave Me a Mountain
TTITLE10=Stonewall Jackson - I Washed my Hands in Muddy Water
TTITLE11=Marty Robbins - Maybelline
TTITLE12=George Jones - The Race is On
TTITLE13=Donna Fargo - Sticks and Stones
EXTD=
EXTT0=
EXTT1=
EXTT2=
EXTT3=
EXTT4=
EXTT5=
EXTT6=
EXTT7=
EXTT8=
EXTT9=
EXTT10=
EXTT11=
EXTT12=
EXTT13=
PLAYORDER=
